<?xml version="1.0"?>
<svg xmlns="http://www.w3.org/2000/svg" xmlns:xlink="http://www.w3.org/1999/xlink" id="Gradient" viewBox="0 0 512 512" width="512" height="512"><defs><linearGradient id="linear-gradient" x1="254.897" y1="496" x2="254.897" y2="16" gradientUnits="userSpaceOnUse"><stop offset="0" stop-color="#27c1e6"/><stop offset="0.5" stop-color="#c275e9"/><stop offset="1" stop-color="#f2515d"/></linearGradient></defs><path d="M483.005,252.673A40.137,40.137,0,0,0,453.8,240H448V223.321a47.984,47.984,0,0,0,30.408-76.1,40,40,0,1,0-76.816,0A47.984,47.984,0,0,0,432,223.321V240h-5.8a40,40,0,0,0-39.911,42.661l2.518,37.767A64.077,64.077,0,0,0,368,317.935V40a8,8,0,0,0-8-8H288V24a8,8,0,0,0-8-8H104a8,8,0,0,0-8,8v8H24a8,8,0,0,0-8,8V408a8,8,0,0,0,8,8H235.422c6.688,32.42,22.78,58.771,44.681,71.171a52.474,52.474,0,0,0,25.958,7.176A49.355,49.355,0,0,0,328,489.106a48.689,48.689,0,0,0,37.3,2.752c12.637-4.082,24.356-13.144,33.908-25.889A40.129,40.129,0,0,0,437.937,496h4.125a40.1,40.1,0,0,0,39.912-37.339l11.733-176A40.142,40.142,0,0,0,483.005,252.673ZM408,176a31.846,31.846,0,0,1,8.532-21.736A8,8,0,0,0,418,145.606,23.764,23.764,0,0,1,416,136a24,24,0,0,1,48,0,23.764,23.764,0,0,1-2,9.606,8,8,0,0,0,1.464,8.658A31.987,31.987,0,0,1,448,206.987V168a8,8,0,0,0-16,0v38.987A32.057,32.057,0,0,1,408,176ZM112,32H272v8a24.028,24.028,0,0,1-24,24H136a24.028,24.028,0,0,1-24-24ZM232,381.75a174.8,174.8,0,0,0,.955,18.25H32V48H96.805A40.068,40.068,0,0,0,136,80H248A40.068,40.068,0,0,0,287.2,48H352V319.875a128.144,128.144,0,0,0-16,4.357V302.78h-.043a56.87,56.87,0,0,0-9.3-27.218C311.47,252.782,284.2,248,264,248a8,8,0,0,0-7.891,6.685,47.182,47.182,0,0,0,10.568,35.83C277.594,303.4,295.526,310.526,320,311.779v12.454c-15.479-5.29-43.427-11.709-64.054,1.268C240.057,335.5,232,354.423,232,381.75Zm86.525-86.073c-18.371-1.305-31.918-6.534-39.481-15.319a30.355,30.355,0,0,1-7.07-16.08c19.153,1.388,32.915,7.955,40.971,19.574A40.564,40.564,0,0,1,318.525,295.677ZM360.38,476.633c-9.679,3.127-19.19,1.951-28.264-3.493a8,8,0,0,0-8.232,0c-14.478,8.689-27.513,4.856-35.9.108-10.947-6.2-20.863-17.863-27.921-32.845C252.172,423.651,248,403.369,248,381.75c0-21.445,5.531-35.809,16.439-42.689,11.056-6.972,26.43-5.648,37.378-3.308a114.883,114.883,0,0,1,22.72,7.459,8,8,0,0,0,6.925,0c10.433-5.009,40.131-15.011,58.532-5.043l6.7,100.523C387.925,458.193,374.769,471.985,360.38,476.633ZM477.742,281.6l-11.733,176A24.062,24.062,0,0,1,442.062,480h-4.125a24.061,24.061,0,0,1-23.946-22.4l-3.84-57.6H435.8a8,8,0,0,0,0-16H409.085l-2.134-32H433.31a8,8,0,0,0,0-16H405.885l-2.134-32H433.31a8,8,0,0,0,0-16H402.685l-.427-6.4A24,24,0,0,1,426.2,256H453.8a24,24,0,0,1,23.946,25.6ZM144,120a8,8,0,0,1,8-8H312a8,8,0,0,1,0,16H152A8,8,0,0,1,144,120ZM312,224H152a8,8,0,0,1,0-16H312a8,8,0,0,1,0,16Zm-72,24a8,8,0,0,1-8,8H152a8,8,0,0,1,0-16h80A8,8,0,0,1,240,248Zm0,64a8,8,0,0,1-8,8H152a8,8,0,0,1,0-16h80A8,8,0,0,1,240,312Zm-16,32a8,8,0,0,1-8,8H152a8,8,0,0,1,0-16h64A8,8,0,0,1,224,344ZM144,152a8,8,0,0,1,8-8h80a8,8,0,0,1,0,16H152A8,8,0,0,1,144,152ZM123,97.753l-9.413,7.531a40.034,40.034,0,1,0,10,12.49l9.41-7.527a8,8,0,0,0-10-12.494ZM112,136a24.03,24.03,0,1,1-11.338-20.375L83,129.753a8,8,0,0,0,10,12.494l17.665-14.132A23.893,23.893,0,0,1,112,136Zm11,57.753-9.413,7.531a40.034,40.034,0,1,0,10,12.49l9.41-7.527a8,8,0,0,0-10-12.494ZM112,232a24.03,24.03,0,1,1-11.338-20.375L83,225.753a8,8,0,0,0,10,12.494l17.665-14.132A23.893,23.893,0,0,1,112,232Zm11,57.753-9.413,7.531a40.034,40.034,0,1,0,10,12.49l9.41-7.527a8,8,0,0,0-10-12.494ZM112,328a24.03,24.03,0,1,1-11.338-20.375L83,321.753a8,8,0,0,0,10,12.494l17.665-14.132A23.893,23.893,0,0,1,112,328Z" style="fill:url(#linear-gradient)"/></svg>
