<?xml version="1.0" standalone="no"?>
<!DOCTYPE svg PUBLIC "-//W3C//DTD SVG 20010904//EN"
 "http://www.w3.org/TR/2001/REC-SVG-20010904/DTD/svg10.dtd">
<svg version="1.0" xmlns="http://www.w3.org/2000/svg"
 width="500.000000pt" height="500.000000pt" viewBox="0 0 500.000000 500.000000"
 preserveAspectRatio="xMidYMid meet">
<metadata>
Created by potrace 1.11, written by Peter Selinger 2001-2013
</metadata>
<g transform="translate(0.000000,500.000000) scale(0.100000,-0.100000)"
fill="#000000" stroke="none">
<path d="M2211 4744 c-322 -39 -669 -168 -946 -351 -569 -376 -932 -962 -1016
-1637 -17 -140 -6 -498 20 -636 43 -233 100 -410 201 -615 223 -457 609 -837
1073 -1055 437 -204 946 -263 1420 -164 834 175 1516 826 1726 1647 46 179 62
290 68 473 18 542 -131 1020 -455 1458 -90 121 -326 358 -440 441 -349 254
-713 399 -1117 445 -123 14 -396 11 -534 -6z m-531 -2324 l0 -690 -113 0 c-75
0 -117 4 -125 12 -9 9 -12 174 -12 680 0 625 1 668 18 677 9 6 65 11 125 11
l107 0 0 -690z m1724 658 c14 -20 16 -100 16 -668 0 -568 -2 -648 -16 -668
-14 -20 -23 -22 -125 -22 l-109 0 0 690 0 690 109 0 c102 0 111 -2 125 -22z
m-2044 -653 l0 -495 -85 0 c-73 0 -86 3 -95 19 -6 13 -10 181 -10 477 0 412 2
459 17 476 13 14 31 18 95 18 l78 0 0 -495z m2294 469 c14 -14 16 -71 16 -484
0 -542 12 -490 -114 -490 l-76 0 0 495 0 495 79 0 c59 0 84 -4 95 -16z m-2544
-474 l0 -270 -48 0 c-26 0 -53 5 -60 12 -9 9 -12 80 -12 260 0 278 -3 267 78
268 l42 0 0 -270z m2734 238 c13 -19 16 -60 16 -250 0 -215 -1 -229 -20 -248
-13 -13 -33 -20 -60 -20 l-40 0 0 270 0 270 44 0 c35 0 48 -5 60 -22z m-1842
-79 c14 -8 18 -19 16 -42 l-3 -32 -65 -3 c-72 -3 -85 -10 -75 -41 5 -18 14
-21 66 -21 65 0 76 -10 65 -55 -6 -23 -11 -25 -66 -25 -56 0 -60 -2 -66 -26
-9 -36 2 -43 76 -46 l65 -3 0 -40 0 -40 -115 0 -115 0 -3 187 c-2 172 -1 187
15 190 39 9 187 7 205 -3z m153 5 c12 -3 33 -25 49 -50 15 -24 31 -44 35 -44
3 0 15 16 26 36 26 49 54 66 96 59 18 -3 35 -7 36 -9 1 -1 -22 -40 -52 -86
-62 -95 -63 -82 19 -200 25 -36 46 -71 46 -77 0 -18 -85 -17 -102 1 -8 7 -25
34 -38 60 -14 25 -28 45 -33 43 -4 -1 -22 -27 -40 -57 -31 -52 -36 -55 -76
-58 -24 -2 -48 1 -52 5 -5 5 11 38 34 73 24 36 52 79 62 97 l18 32 -52 80
c-29 44 -50 85 -46 90 7 12 38 14 70 5z m528 -4 c13 0 17 -9 17 -40 l0 -39
-67 -3 c-65 -3 -68 -4 -68 -28 0 -24 3 -25 63 -28 l62 -3 0 -39 0 -39 -62 -3
c-63 -3 -63 -3 -66 -35 l-3 -33 56 0 c67 0 95 -13 95 -43 0 -45 -10 -48 -131
-45 l-114 3 -3 183 c-3 215 -9 205 123 197 44 -2 88 -5 98 -5z m334 -13 c62
-33 83 -129 43 -195 -26 -42 -25 -49 10 -102 41 -61 39 -70 -15 -70 -49 0 -56
5 -106 78 -43 62 -68 57 -71 -17 -2 -55 -9 -63 -54 -59 l-39 3 -3 180 c-1 98
0 186 3 193 8 21 188 12 232 -11z"/>
<path d="M2877 2487 c-3 -8 -2 -29 2 -48 6 -30 11 -34 43 -37 58 -5 90 45 52
82 -19 20 -90 21 -97 3z"/>
</g>
</svg>
