<svg id="Gradient" height="512" viewBox="0 0 512 512" width="512" xmlns="http://www.w3.org/2000/svg" xmlns:xlink="http://www.w3.org/1999/xlink"><linearGradient id="linear-gradient" gradientUnits="userSpaceOnUse" x1="256" x2="256" y1="496" y2="16"><stop offset="0" stop-color="#27c1e6"/><stop offset=".5" stop-color="#c275e9"/><stop offset="1" stop-color="#f2515d"/></linearGradient><path d="m360 16h-208a40.045 40.045 0 0 0 -40 40v400a40.045 40.045 0 0 0 40 40h208a40.045 40.045 0 0 0 40-40v-400a40.045 40.045 0 0 0 -40-40zm-208 16h208a24.028 24.028 0 0 1 24 24v24h-256v-24a24.028 24.028 0 0 1 24-24zm232 64v288h-256v-288zm-24 384h-208a24.028 24.028 0 0 1 -24-24v-56h256v56a24.028 24.028 0 0 1 -24 24zm-168-424a8 8 0 1 1 8 8 8 8 0 0 1 -8-8zm32 0a8 8 0 0 1 8-8h80a8 8 0 0 1 0 16h-80a8 8 0 0 1 -8-8zm-80 144v-80a8 8 0 0 1 16 0v72h16v-24a8 8 0 0 1 16 0v24h16v-48a8 8 0 0 1 16 0v48h16v-16a8 8 0 0 1 16 0v16h16v-72a8 8 0 0 1 16 0v72h16v-32a8 8 0 0 1 16 0v32h16v-16a8 8 0 0 1 16 0v16h8a8 8 0 0 1 0 16h-208a8 8 0 0 1 -8-8zm216 88h-28.961a39.889 39.889 0 0 0 -2.08-41.3l-2.616-3.879a40.1 40.1 0 0 0 -51.05-13.409l-19.293 9.644-19.017-9.509a40.024 40.024 0 0 0 -51.291 13.771l-2.327 3.534a39.976 39.976 0 0 0 -1.719 41.148h-29.646a8 8 0 0 0 0 16h42.655l55.8 61.381a8 8 0 0 0 11.838 0l55.807-61.381h41.9a8 8 0 0 0 0-16zm-160.992-3a23.986 23.986 0 0 1 -2.282-29.348l2.328-3.533a24 24 0 0 1 30.774-8.263l22.594 11.3a7.992 7.992 0 0 0 7.156 0l22.87-11.435a24.065 24.065 0 0 1 30.631 8.046l2.615 3.878a23.942 23.942 0 0 1 -2.138 29.564l-2.537 2.791h-39.019a8 8 0 0 0 -5.657 2.343l-6.475 6.475-5.62-19.079a8 8 0 0 0 -13.331-3.4l-13.657 13.661h-25.527zm57.368 63.105-40.098-44.105h14.3a8 8 0 0 0 5.656-2.343l6.476-6.475 5.62 19.079a8 8 0 0 0 13.331 3.4l13.653-13.661h21.159zm-.376 115.895a24 24 0 1 1 24-24 24.027 24.027 0 0 1 -24 24zm0-32a8 8 0 1 0 8 8 8.009 8.009 0 0 0 -8-8z" fill="url(#linear-gradient)"/></svg>