<?xml version="1.0"?>
<svg xmlns="http://www.w3.org/2000/svg" xmlns:xlink="http://www.w3.org/1999/xlink" id="Gradient" viewBox="0 0 512 512" width="512" height="512"><defs><linearGradient id="linear-gradient" x1="257.628" y1="493.71" x2="257.628" y2="16" gradientUnits="userSpaceOnUse"><stop offset="0" stop-color="#27c1e6"/><stop offset="0.5" stop-color="#c275e9"/><stop offset="1" stop-color="#f2515d"/></linearGradient></defs><path d="M200.845,172.422a8,8,0,0,1,10.733-3.577l16,8a7.986,7.986,0,0,1,2.079,1.5L240,188.686l10.343-10.343a7.986,7.986,0,0,1,2.079-1.5l16-8a8,8,0,1,1,7.156,14.31l-14.839,7.42-15.082,15.082a8,8,0,0,1-11.314,0l-15.082-15.082-14.839-7.42A8,8,0,0,1,200.845,172.422ZM224,248a8,8,0,0,0,0-16H194.833a7.963,7.963,0,0,1-7.429-5.029l-11.976-29.942a8,8,0,1,0-14.856,5.942l11.977,29.943A23.886,23.886,0,0,0,194.833,248Zm24-8a8,8,0,0,0,8,8h29.167a23.886,23.886,0,0,0,22.284-15.086l11.977-29.943a8,8,0,0,0-14.856-5.942L292.6,226.971A7.963,7.963,0,0,1,285.167,232H256A8,8,0,0,0,248,240ZM496,352a112.016,112.016,0,0,1-166.2,98.022l1.622,4.868a8,8,0,0,1-1.93,8.19l-28.28,28.28a8,8,0,0,1-5.66,2.35,7.713,7.713,0,0,1-1.84-.22,8,8,0,0,1-5.75-5.25l-10.05-30.15-30.15-10.05a8,8,0,0,1-3.12-13.25l28.28-28.28a8.007,8.007,0,0,1,8.19-1.93l4.868,1.622A111.751,111.751,0,0,1,272.287,360H176a8,8,0,0,1-8-8V297.757L123.11,200.5c-20.937,1.355-41.4-4.107-60.942-16.265-17.252-10.734-30-24.4-37.656-33.975a24.041,24.041,0,0,1-1.7-27.583L81.187,27.807a8,8,0,0,1,5.244-3.652l40-8a8.01,8.01,0,0,1,6.007,1.189l24,16a8,8,0,0,1,3.152,9.186l-8,24A8,8,0,0,1,144,72H109.767L93.415,121.054A52.118,52.118,0,0,1,104,120c12.515,0,21.13,7.156,26.08,13A47.64,47.64,0,0,1,152,128c13.438,0,25.97,8.437,32.7,13.92l15.3-10.2V104a8,8,0,0,1,8-8h64a8,8,0,0,1,8,8v27.719l15.3,10.2C302.03,136.437,314.562,128,328,128a47.64,47.64,0,0,1,21.92,5c4.95-5.845,13.565-13,26.08-13a52.118,52.118,0,0,1,10.585,1.054L370.233,72H336a8,8,0,0,1-7.59-5.47l-8-24a8,8,0,0,1,3.152-9.186l24-16a8,8,0,0,1,6.007-1.189l40,8a8,8,0,0,1,5.244,3.652l58.38,94.87a24.043,24.043,0,0,1-1.709,27.584c-7.652,9.569-20.4,23.236-37.652,33.97-19.538,12.158-40.01,17.617-60.942,16.265l-23.915,51.817A111.977,111.977,0,0,1,496,352ZM184,296v48h48V320h-8a8,8,0,0,1,0-16h8V288H208a8,8,0,0,1,0-16h24v-8a8,8,0,0,1,16,0v8h24a8,8,0,0,1,0,16H248v16h8a8,8,0,0,1,0,16h-8v24h24.289a111.731,111.731,0,0,1,34.443-73l38-82.347a7.988,7.988,0,0,1,8.256-4.586c45.109,5.633,77.968-28.751,90-43.8a8.013,8.013,0,0,0,.577-9.2L387.014,39.161l-33.333-6.666-16.16,10.772L341.767,56H376a8,8,0,0,1,7.59,5.47l24,72a8.084,8.084,0,0,1-3.4,9.5,7.857,7.857,0,0,1-9.8-1.268c-.654-.587-6.683-5.7-18.384-5.7-10.738,0-16.808,11.507-16.867,11.623a7.92,7.92,0,0,1-5.9,4.411,7.746,7.746,0,0,1-6.847-2.334c-.654-.587-6.683-5.7-18.384-5.7-10.32,0-22.522,9.866-26.354,13.667a8.016,8.016,0,0,1-10.084.989l-24-16A8,8,0,0,1,264,136V112H216v24a8,8,0,0,1-3.562,6.656l-24,16a8,8,0,0,1-10.095-1C174.522,153.866,162.32,144,152,144c-11.7,0-17.73,5.113-18.384,5.7a7.77,7.77,0,0,1-6.859,2.311,7.965,7.965,0,0,1-5.912-4.433C120.808,147.507,114.738,136,104,136c-12.141,0-18.286,5.6-18.343,5.657A8,8,0,0,1,72.41,133.47l24-72A8,8,0,0,1,104,56h34.233l4.246-12.733-16.16-10.772L92.986,39.161l-56.552,91.9a8.01,8.01,0,0,0,.57,9.2c12.036,15.053,44.894,49.435,90,43.8a7.993,7.993,0,0,1,8.256,4.585l48,104A8.005,8.005,0,0,1,184,296Zm98.076,146.614,15.633-15.635L280.74,421.32,265.1,436.95Zm32.6,12.646-5.655-16.973L293.391,453.92l5.649,16.98ZM480,352a96,96,0,1,0-169.287,61.974L322.087,402.6A80.1,80.1,0,1,1,333.4,413.913l-11.375,11.374A95.975,95.975,0,0,0,480,352ZM356.443,368.239l21.9-21.9a8,8,0,0,1,11.32,11.32l-21.9,21.9a32.038,32.038,0,1,0-11.318-11.318Zm-11.655,34.288a64.106,64.106,0,1,0-11.315-11.315L344.9,379.786A48.077,48.077,0,1,1,356.214,391.1Z" style="fill:url(#linear-gradient)"/></svg>
